<?xml version="1.0" encoding="utf-8"?>
<svg version="1.0" id="Layer_1" xmlns="http://www.w3.org/2000/svg" xmlns:xlink="http://www.w3.org/1999/xlink" x="0px" y="0px"
	 viewBox="0 0 5333 4000" enable-background="new 0 0 5333 4000" xml:space="preserve">
<g id="_2032260309440">
	<path fill="#FFE5EE" d="M2674.9,126.3c1435.9,0,2600,1164.1,2600,2600c0,318.7-57.4,623.9-162.4,906H237.3
		C132.4,3350.2,75,3045,75,2726.3C74.9,1290.4,1239,126.3,2674.9,126.3L2674.9,126.3z"/>
	<g>
		<path fill="#E0ACBF" d="M4855,1146.2c-373.5-16-747.5,150.3-982.4,476.2s-274.2,733.4-140.8,1082.6
			c373.5,16,747.5-150.2,982.4-476.2C4949.1,1902.8,4988.4,1495.4,4855,1146.2z"/>
		<path fill="#FFE5EE" d="M4727.5,1335.7c2.4-3.3,1.6-7.8-1.7-10.2c-3.3-2.4-7.9-1.6-10.2,1.7l-152.8,212.1l-40.6-250.3
			c-0.6-4-4.4-6.7-8.4-6c-4,0.6-6.7,4.4-6.1,8.4l43,264.7L4221,2013.6l-56.8-349.6c-0.6-4-4.4-6.7-8.4-6c-4,0.6-6.7,4.4-6,8.4
			l59.1,364.1L3921,2429.9l-40.6-250.3c-0.6-4-4.4-6.7-8.4-6.1c-4,0.6-6.7,4.4-6.1,8.4l43,264.7l-76.4,106
			c-2.4,3.3-1.6,7.9,1.7,10.2c3.3,2.4,7.8,1.6,10.2-1.7l76.4-106l264.7-43c4-0.6,6.7-4.4,6-8.4c-0.6-4-4.4-6.7-8.4-6.1l-250.3,40.7
			l287.8-399.5l364.1-59.1c4-0.6,6.7-4.4,6.1-8.4s-4.4-6.7-8.4-6.1l-349.6,56.8l329.7-457.7l264.7-43c4-0.6,6.7-4.4,6-8.4
			c-0.6-4-4.4-6.7-8.4-6l-250.3,40.6L4727.5,1335.7L4727.5,1335.7z"/>
	</g>
	<g>
		<g>
			<path fill="#E0ACBF" d="M1816.6,144.8c-32.3,197.4,32.3,406.7,190.5,552.3c158.3,145.5,372.2,192.3,566.3,143.7
				c32.3-197.4-32.3-406.7-190.5-552.3C2224.7,143,2010.7,96.2,1816.6,144.8L1816.6,144.8z"/>
			<path fill="#FFE5EE" d="M1909.2,224.7c-1.6-1.5-4.1-1.4-5.5,0.2c-1.5,1.6-1.4,4.1,0.2,5.5l103,94.7l-135.6,5.7
				c-2.2,0.1-3.8,1.9-3.7,4.1c0.1,2.2,1.9,3.8,4.1,3.7l143.4-6l222.2,204.3l-189.4,7.9c-2.2,0.1-3.8,1.9-3.7,4.1
				c0.1,2.2,1.9,3.8,4.1,3.7l197.2-8.3l194,178.4l-135.6,5.7c-2.2,0.1-3.8,1.9-3.7,4.1c0.1,2.2,1.9,3.8,4.1,3.7l143.4-6l51.5,47.4
				c1.6,1.5,4.1,1.4,5.5-0.2c1.5-1.6,1.4-4.1-0.2-5.5l-51.5-47.3l-6-143.4c-0.1-2.1-1.9-3.8-4.1-3.7c-2.2,0.1-3.8,1.9-3.7,4.1
				l5.7,135.6L2251,538.8l-8.3-197.2c-0.1-2.2-1.9-3.8-4.1-3.7c-2.2,0.1-3.8,1.9-3.7,4.1l7.9,189.4l-222.2-204.3l-6-143.4
				c-0.1-2.2-1.9-3.8-4.1-3.7c-2.2,0.1-3.8,1.9-3.7,4.1l5.7,135.6L1909.2,224.7L1909.2,224.7z"/>
		</g>
		<g>
			<path fill="#E0ACBF" d="M3533.2,144.8c32.3,197.4-32.3,406.7-190.6,552.3c-158.2,145.5-372.2,192.3-566.3,143.7
				c-32.3-197.4,32.3-406.7,190.5-552.3C3125.2,143,3339.2,96.2,3533.2,144.8L3533.2,144.8z"/>
			<path fill="#FFE5EE" d="M3440.7,224.7c1.6-1.5,4.1-1.4,5.5,0.2c1.5,1.6,1.4,4.1-0.2,5.5l-103,94.7l135.6,5.7
				c2.1,0.1,3.8,1.9,3.7,4.1c-0.1,2.2-1.9,3.8-4.1,3.7l-143.4-6l-222.2,204.3l189.4,7.9c2.2,0.1,3.8,1.9,3.7,4.1s-1.9,3.8-4.1,3.7
				l-197.2-8.3l-194,178.4l135.6,5.7c2.1,0.1,3.8,1.9,3.7,4.1c-0.1,2.2-1.9,3.8-4.1,3.7l-143.4-6l-51.5,47.4
				c-1.6,1.5-4.1,1.4-5.5-0.2c-1.5-1.6-1.4-4.1,0.2-5.5l51.5-47.3l6-143.4c0.1-2.1,1.9-3.8,4.1-3.7c2.2,0.1,3.8,1.9,3.7,4.1
				l-5.7,135.6l194-178.4l8.3-197.2c0.1-2.2,1.9-3.8,4.1-3.7c2.2,0.1,3.8,1.9,3.7,4.1l-7.9,189.4l222.2-204.3l6-143.4
				c0.1-2.2,1.9-3.8,4.1-3.7c2.1,0.1,3.8,1.9,3.7,4.1l-5.7,135.6L3440.7,224.7L3440.7,224.7z"/>
		</g>
	</g>
	<g>
		<path fill="#E0ACBF" d="M396.2,697.4c373.5-16,747.5,150.3,982.4,476.2s274.2,733.4,140.8,1082.6
			c-373.5,16-747.5-150.2-982.4-476.2S262.8,1046.6,396.2,697.4L396.2,697.4z"/>
		<path fill="#FFE5EE" d="M523.7,886.9c-2.4-3.3-1.6-7.8,1.7-10.2c3.3-2.4,7.9-1.6,10.2,1.7l152.8,212.1L729,840.1
			c0.6-4,4.4-6.7,8.4-6c4,0.6,6.7,4.4,6.1,8.4l-43,264.7l329.7,457.7l56.8-349.6c0.6-4,4.4-6.7,8.4-6c4,0.6,6.7,4.4,6.1,8.4
			l-59.1,364.1l287.8,399.5l40.7-250.3c0.6-4,4.4-6.7,8.4-6c4,0.6,6.7,4.4,6,8.4l-43,264.7l76.4,106c2.3,3.3,1.6,7.9-1.7,10.2
			c-3.3,2.4-7.8,1.6-10.2-1.7l-76.4-106l-264.7-43c-4-0.6-6.7-4.4-6.1-8.4s4.4-6.7,8.4-6l250.3,40.6l-287.8-399.5L666.4,1531
			c-4-0.6-6.7-4.4-6.1-8.4c0.6-4,4.4-6.7,8.4-6.1l349.6,56.8l-329.7-457.7l-264.7-43c-4-0.6-6.7-4.4-6.1-8.4c0.6-4,4.4-6.7,8.4-6
			l250.3,40.6L523.7,886.9L523.7,886.9z"/>
	</g>
	<path fill="#B0798D" d="M903,438h3544c74.3,0,135,60.8,135,135v2326.5c0,74.3-60.8,135-135,135H903c-74.3,0-135.1-60.8-135.1-135
		V573C767.9,498.7,828.7,438,903,438L903,438z"/>
	<path fill="#996175" d="M1862.1,3034.5H903c-74.3,0-135.1-60.8-135.1-135V1427.1h1008.7c47,0,85.5,38.5,85.5,85.5L1862.1,3034.5
		L1862.1,3034.5z"/>
	<path fill="#CF97AC" d="M903,544.9c-15.3,0-28.1,12.9-28.1,28.1v2326.5c0,15.3,12.9,28.1,28.1,28.1h3544
		c15.3,0,28.1-12.9,28.1-28.1V573c0-15.3-12.9-28.1-28.1-28.1H903L903,544.9z"/>
	<path fill="#B0798D" d="M874.8,1427.1v1472.4c0,15.3,12.9,28.1,28.1,28.1h959.2v-1415c0-47-38.5-85.5-85.5-85.5L874.8,1427.1
		L874.8,1427.1z"/>
	<polygon fill="#996175" points="2206.8,3034.5 3143.1,3034.5 3143.1,3484.4 2206.8,3484.4 	"/>
	<path fill="#B0798D" d="M2674.9,3382.7c359.9,0,683.6,96.3,907.4,249.6H1767.6C1991.4,3479,2315,3382.7,2674.9,3382.7
		L2674.9,3382.7z"/>
	<polygon fill="#8F566A" points="2206.8,3034.5 3143.1,3034.5 3143.1,3185 2206.8,3185 	"/>
	<polygon fill="#DBA4B8" points="874.8,662.7 4475.1,662.7 4475.1,2809.8 874.8,2809.8 	"/>
	<path fill="#CC91A7" d="M1862.1,2809.8H874.8V1427.1h901.8c47,0,85.5,38.5,85.5,85.5V2809.8z"/>
	<path fill="#FCDDE9" d="M3291,2623.1c-20,0-36.2-16.2-36.2-36.2s16.2-36.3,36.2-36.3h490.8c20,0,36.3,16.2,36.3,36.3
		c0,20-16.2,36.2-36.3,36.2H3291z M1489.1,1076.5c-20,0-36.2-16.2-36.2-36.2c0-20,16.2-36.3,36.2-36.3h230.2
		c20,0,36.3,16.2,36.3,36.3c0,20-16.2,36.3-36.3,36.3L1489.1,1076.5L1489.1,1076.5z M2541.2,1076.5c-20,0-36.2-16.2-36.2-36.2
		c0-20,16.2-36.3,36.2-36.3h706.7c20,0,36.2,16.2,36.2,36.3c0,20-16.2,36.3-36.2,36.3L2541.2,1076.5z M3484.4,1076.5
		c-20,0-36.3-16.2-36.3-36.2c0-20,16.2-36.3,36.3-36.3h319.8c20,0,36.3,16.2,36.3,36.3c0,20-16.2,36.3-36.3,36.3L3484.4,1076.5z
		 M1489.1,921.9c-20,0-36.2-16.2-36.2-36.2s16.2-36.3,36.2-36.3h300.6c20,0,36.2,16.2,36.2,36.3c0,20.1-16.2,36.2-36.2,36.2H1489.1z
		 M2045.5,921.9c-20,0-36.3-16.2-36.3-36.2s16.2-36.3,36.3-36.3h642.7c20,0,36.3,16.2,36.3,36.3c0,20.1-16.2,36.2-36.3,36.2H2045.5
		L2045.5,921.9z M3890.6,921.9c-20,0-36.2-16.2-36.2-36.2s16.2-36.3,36.2-36.3h204.6c20,0,36.3,16.2,36.3,36.3
		c0,20.1-16.2,36.2-36.3,36.2H3890.6L3890.6,921.9z M1671.5,1385.8c-20,0-36.3-16.2-36.3-36.3c0-20,16.2-36.3,36.3-36.3h538.8
		c20,0,36.3,16.2,36.3,36.3c0,20-16.2,36.3-36.3,36.3H1671.5L1671.5,1385.8z M2517.2,1385.8c-20,0-36.3-16.2-36.3-36.3
		c0-20,16.2-36.3,36.3-36.3h454c20,0,36.2,16.2,36.2,36.3c0,20-16.2,36.3-36.2,36.3H2517.2z M3905,1385.8c-20,0-36.3-16.2-36.3-36.3
		c0-20,16.2-36.3,36.3-36.3h190.3c20,0,36.2,16.2,36.2,36.3c0,20-16.2,36.3-36.2,36.3H3905L3905,1385.8z M1671.5,1540.5
		c-20,0-36.3-16.2-36.3-36.3c0-20,16.2-36.3,36.3-36.3H1940c20,0,36.2,16.2,36.2,36.3c0,20-16.2,36.3-36.2,36.3H1671.5z
		 M2138.3,1540.5c-20,0-36.2-16.2-36.2-36.3c0-20,16.2-36.3,36.2-36.3h1109.6c20,0,36.3,16.2,36.3,36.3c0,20-16.2,36.3-36.3,36.3
		H2138.3L2138.3,1540.5z M3487.7,1540.5c-20,0-36.2-16.2-36.2-36.3c0-20,16.2-36.3,36.2-36.3h316.5c20,0,36.3,16.2,36.3,36.3
		c0,20-16.2,36.3-36.3,36.3H3487.7z M1671.5,1695.2c-20,0-36.3-16.2-36.3-36.3c0-20,16.2-36.2,36.3-36.2h588.4
		c20,0,36.3,16.2,36.3,36.2s-16.2,36.3-36.3,36.3H1671.5z M3103.9,1695.2c-20,0-36.2-16.2-36.2-36.3c0-20,16.2-36.2,36.2-36.2h585.2
		c20,0,36.3,16.2,36.3,36.2s-16.2,36.3-36.3,36.3H3103.9z M1671.5,1849.8c-20,0-36.3-16.2-36.3-36.3c0-20,16.2-36.2,36.3-36.2h692.3
		c20,0,36.3,16.2,36.3,36.2s-16.2,36.3-36.3,36.3H1671.5z M2808.1,1849.8c-20,0-36.2-16.2-36.2-36.3c0-20,16.2-36.2,36.2-36.2h335.7
		c20,0,36.2,16.2,36.2,36.2s-16.2,36.3-36.2,36.3H2808.1L2808.1,1849.8z M3393.4,1849.8c-20,0-36.2-16.2-36.2-36.3
		c0-20,16.2-36.2,36.2-36.2H3937c20,0,36.2,16.2,36.2,36.2s-16.2,36.3-36.2,36.3H3393.4z M1489.1,2159.1c-20,0-36.2-16.2-36.2-36.2
		s16.2-36.3,36.2-36.3h105.5c20,0,36.3,16.2,36.3,36.3c0,20-16.2,36.2-36.3,36.2H1489.1z M1719.4,2159.1c-20,0-36.2-16.2-36.2-36.2
		s16.2-36.3,36.2-36.3h473.3c20,0,36.2,16.2,36.2,36.3c0,20-16.2,36.2-36.2,36.2H1719.4z M2390.8,2159.1c-20,0-36.2-16.2-36.2-36.2
		s16.2-36.3,36.2-36.3h550c20,0,36.3,16.2,36.3,36.3c0,20-16.2,36.2-36.3,36.2H2390.8L2390.8,2159.1z M3103.9,2159.1
		c-20,0-36.2-16.2-36.2-36.2s16.2-36.3,36.2-36.3h444.5c20,0,36.2,16.2,36.2,36.3c0,20-16.2,36.2-36.2,36.2H3103.9z M1489.1,2313.7
		c-20,0-36.2-16.2-36.2-36.2s16.2-36.3,36.2-36.3h312.1c20,0,36.2,16.2,36.2,36.3c0,20-16.2,36.2-36.2,36.2H1489.1z M1915.7,2313.7
		c-20,0-36.3-16.2-36.3-36.2s16.2-36.3,36.3-36.3h344.1c20,0,36.3,16.2,36.3,36.3c0,20-16.2,36.2-36.3,36.2H1915.7L1915.7,2313.7z
		 M2691.5,2313.7c-20,0-36.3-16.2-36.3-36.2s16.2-36.3,36.3-36.3h444.4c20,0,36.3,16.2,36.3,36.3c0,20-16.2,36.2-36.3,36.2H2691.5z
		 M3446.1,2313.7c-20,0-36.3-16.2-36.3-36.2s16.2-36.3,36.3-36.3h444.5c20,0,36.3,16.2,36.3,36.3c0,20-16.2,36.2-36.3,36.2H3446.1z
		 M1489.1,2468.3c-20,0-36.2-16.2-36.2-36.2s16.2-36.3,36.2-36.3h137.6c20,0,36.3,16.2,36.3,36.3c0,20-16.2,36.3-36.3,36.3
		L1489.1,2468.3z M1949.6,2468.3c-20,0-36.2-16.2-36.2-36.2s16.2-36.3,36.2-36.3h211c20,0,36.3,16.2,36.3,36.3
		c0,20-16.2,36.3-36.3,36.3L1949.6,2468.3L1949.6,2468.3z M2459.7,2468.3c-20,0-36.3-16.2-36.3-36.2s16.2-36.3,36.3-36.3h390.1
		c20,0,36.3,16.2,36.3,36.3c0,20-16.2,36.3-36.3,36.3L2459.7,2468.3z M3056,2468.3c-20,0-36.2-16.2-36.2-36.2s16.2-36.3,36.2-36.3
		h559.6c20,0,36.3,16.2,36.3,36.3c0,20-16.2,36.3-36.3,36.3L3056,2468.3z M1489.1,2623.1c-20,0-36.2-16.2-36.2-36.2
		s16.2-36.3,36.2-36.3h460.4c20,0,36.2,16.2,36.2,36.3c0,20-16.2,36.2-36.2,36.2H1489.1z"/>
	<path fill="#EBB5C9" d="M1849.5,1468c8,13,12.6,28.3,12.6,44.6v27.9h-190.7c-20,0-36.3-16.2-36.3-36.3c0-20,16.2-36.2,36.3-36.2
		H1849.5z M1862.1,1622.7v72.5h-190.7c-20,0-36.3-16.2-36.3-36.3c0-20,16.2-36.2,36.3-36.2H1862.1z M1862.1,1777.3v72.5h-190.7
		c-20,0-36.3-16.2-36.3-36.3c0-20,16.2-36.2,36.3-36.2H1862.1z M1862.1,2086.5v72.5h-142.7c-20,0-36.2-16.2-36.2-36.2
		s16.2-36.3,36.2-36.3H1862.1z M1862.1,2550.5v72.5h-373c-20,0-36.2-16.2-36.2-36.2s16.2-36.3,36.2-36.3H1862.1L1862.1,2550.5z
		 M1489.1,2159.1c-20,0-36.2-16.2-36.2-36.2s16.2-36.3,36.2-36.3h105.5c20,0,36.3,16.2,36.3,36.3c0,20-16.2,36.2-36.3,36.2H1489.1z
		 M1489.1,2313.7c-20,0-36.2-16.2-36.2-36.2s16.2-36.3,36.2-36.3h312.1c20,0,36.2,16.2,36.2,36.3c0,20-16.2,36.2-36.2,36.2H1489.1z
		 M1489.1,2468.3c-20,0-36.2-16.2-36.2-36.2s16.2-36.3,36.2-36.3h137.6c20,0,36.3,16.2,36.3,36.3c0,20-16.2,36.2-36.3,36.2H1489.1z"
		/>
	<path fill="#FFFFFF" d="M1952.8,2004.4c-20,0-36.3-16.2-36.3-36.3c0-20,16.2-36.2,36.3-36.2h735.4c20,0,36.3,16.2,36.3,36.2
		s-16.2,36.3-36.3,36.3H1952.8L1952.8,2004.4z M1306.4,2550.5c20,0,36.3,16.2,36.3,36.3s-16.2,36.2-36.3,36.2
		c-20,0-36.2-16.2-36.2-36.2S1286.5,2550.5,1306.4,2550.5z M1306.4,849.4c20,0,36.3,16.2,36.3,36.3c0,20-16.2,36.2-36.3,36.2
		c-20,0-36.2-16.2-36.2-36.2C1270.2,865.6,1286.5,849.4,1306.4,849.4z M1306.4,1004c20,0,36.3,16.2,36.3,36.3
		c0,20-16.2,36.3-36.3,36.3c-20,0-36.2-16.2-36.2-36.3C1270.2,1020.3,1286.5,1004,1306.4,1004z M1306.4,1158.6
		c20,0,36.3,16.2,36.3,36.3c0,20-16.2,36.3-36.3,36.3c-20,0-36.2-16.2-36.2-36.3C1270.2,1174.9,1286.5,1158.6,1306.4,1158.6z
		 M1306.4,1313.4c20,0,36.3,16.2,36.3,36.3c0,20-16.2,36.3-36.3,36.3c-20,0-36.2-16.2-36.2-36.3
		C1270.2,1329.5,1286.5,1313.4,1306.4,1313.4z M1306.4,1468c20,0,36.3,16.2,36.3,36.3s-16.2,36.3-36.3,36.3
		c-20,0-36.2-16.2-36.2-36.3S1286.5,1468,1306.4,1468z M1306.4,1622.7c20,0,36.3,16.2,36.3,36.2s-16.2,36.3-36.3,36.3
		c-20,0-36.2-16.2-36.2-36.3C1270.2,1638.9,1286.5,1622.7,1306.4,1622.7z M1306.4,1777.3c20,0,36.3,16.2,36.3,36.2
		s-16.2,36.3-36.3,36.3c-20,0-36.2-16.2-36.2-36.3C1270.2,1793.5,1286.5,1777.3,1306.4,1777.3z M1306.4,1931.9
		c20,0,36.3,16.2,36.3,36.2s-16.2,36.3-36.3,36.3c-20,0-36.2-16.2-36.2-36.3C1270.2,1948.1,1286.5,1931.9,1306.4,1931.9z
		 M1306.4,2086.5c20,0,36.3,16.2,36.3,36.3c0,20-16.2,36.2-36.3,36.2c-20,0-36.2-16.2-36.2-36.2
		C1270.2,2102.8,1286.5,2086.5,1306.4,2086.5z M1306.4,2241.2c20,0,36.3,16.2,36.3,36.3c0,20-16.2,36.2-36.3,36.2
		c-20,0-36.2-16.2-36.2-36.2C1270.2,2257.4,1286.5,2241.2,1306.4,2241.2z M1306.4,2395.9c20,0,36.3,16.2,36.3,36.3
		c0,20-16.2,36.2-36.3,36.2c-20,0-36.2-16.2-36.2-36.2C1270.2,2412,1286.5,2395.9,1306.4,2395.9z M1489.1,1231.2
		c-20,0-36.2-16.2-36.2-36.3c0-20,16.2-36.3,36.2-36.3h522.8c20,0,36.3,16.2,36.3,36.3c0,20-16.2,36.3-36.3,36.3H1489.1z
		 M2192.6,1231.2c-20,0-36.3-16.2-36.3-36.3c0-20,16.2-36.3,36.3-36.3h669.2c20,0,36.2,16.2,36.2,36.3c0,20-16.2,36.3-36.2,36.3
		H2192.6z M1489.1,2004.4c-20,0-36.2-16.2-36.2-36.3c0-20,16.2-36.2,36.2-36.2h265.4c20,0,36.2,16.2,36.2,36.2s-16.2,36.3-36.2,36.3
		H1489.1z"/>
	<path fill="#EBB5C9" d="M3011.3,921.9c-20,0-36.2-16.2-36.2-36.2s16.2-36.3,36.2-36.3H3654c20,0,36.3,16.2,36.3,36.3
		c0,20.1-16.2,36.2-36.3,36.2H3011.3z M1917.7,1076.5c-20,0-36.3-16.2-36.3-36.2c0-20,16.2-36.3,36.3-36.3h460.4
		c20,0,36.3,16.2,36.3,36.3c0,20-16.2,36.3-36.3,36.3L1917.7,1076.5L1917.7,1076.5z M3143.9,1385.8c-20,0-36.3-16.2-36.3-36.3
		s16.2-36.3,36.3-36.3H3598c20,0,36.3,16.2,36.3,36.3s-16.2,36.3-36.3,36.3H3143.9z M2496.4,1695.2c-20,0-36.3-16.2-36.3-36.3
		c0-20,16.2-36.2,36.3-36.2h444.5c20,0,36.3,16.2,36.3,36.2s-16.2,36.3-36.3,36.3H2496.4z M3740.3,2159.1c-20,0-36.2-16.2-36.2-36.2
		s16.2-36.3,36.2-36.3h354.9c20,0,36.3,16.2,36.3,36.3c0,20-16.2,36.2-36.3,36.2H3740.3L3740.3,2159.1z M2219.8,2623.1
		c-20,0-36.3-16.2-36.3-36.2s16.2-36.3,36.3-36.3h666.7c20,0,36.2,16.2,36.2,36.3s-16.2,36.2-36.2,36.2H2219.8z M3815.4,2468.3
		c-20,0-36.3-16.2-36.3-36.2s16.2-36.3,36.3-36.3h279.9c20,0,36.2,16.2,36.2,36.3c0,20-16.2,36.3-36.2,36.3L3815.4,2468.3
		L3815.4,2468.3z"/>
	<g>
		<path fill="#FCDDE9" d="M1306.4,2550.5c20,0,36.3,16.2,36.3,36.3c0,20-16.2,36.2-36.3,36.2c-20,0-36.2-16.2-36.2-36.2
			C1270.2,2566.8,1286.5,2550.5,1306.4,2550.5z M1306.4,1468c20,0,36.3,16.2,36.3,36.2s-16.2,36.3-36.3,36.3
			c-20,0-36.2-16.2-36.2-36.3C1270.2,1484.3,1286.5,1468,1306.4,1468z M1306.4,1622.7c20,0,36.3,16.2,36.3,36.2
			s-16.2,36.3-36.3,36.3c-20,0-36.2-16.2-36.2-36.3C1270.2,1638.9,1286.5,1622.7,1306.4,1622.7z M1306.4,1777.3
			c20,0,36.3,16.2,36.3,36.2s-16.2,36.3-36.3,36.3c-20,0-36.2-16.2-36.2-36.3C1270.2,1793.5,1286.5,1777.3,1306.4,1777.3z
			 M1306.4,1931.9c20,0,36.3,16.2,36.3,36.2s-16.2,36.3-36.3,36.3c-20,0-36.2-16.2-36.2-36.3
			C1270.2,1948.1,1286.5,1931.9,1306.4,1931.9z M1306.4,2086.5c20,0,36.3,16.2,36.3,36.3c0,20-16.2,36.2-36.3,36.2
			c-20,0-36.2-16.2-36.2-36.2C1270.2,2102.8,1286.5,2086.5,1306.4,2086.5z M1306.4,2241.2c20,0,36.3,16.2,36.3,36.3
			c0,20-16.2,36.2-36.3,36.2c-20,0-36.2-16.2-36.2-36.2C1270.2,2257.4,1286.5,2241.2,1306.4,2241.2z M1306.4,2395.9
			c20,0,36.3,16.2,36.3,36.3c0,20-16.2,36.2-36.3,36.2c-20,0-36.2-16.2-36.2-36.2C1270.2,2412,1286.5,2395.9,1306.4,2395.9z
			 M1489.1,2004.4c-20,0-36.2-16.2-36.2-36.3c0-20,16.2-36.2,36.2-36.2h265.4c20,0,36.2,16.2,36.2,36.2s-16.2,36.3-36.2,36.3H1489.1
			z"/>
		<path fill="#C28A9E" d="M360.7,1307.4h1262.8c47,0,85.5,38.5,85.5,85.5v2153.8c0,47-38.5,85.5-85.5,85.5H360.7
			c-47,0-85.5-38.5-85.5-85.5V1393C275.2,1345.9,313.7,1307.4,360.7,1307.4L360.7,1307.4z"/>
		<path fill="#DBA4B8" d="M360.7,1476.7h1262.8c1.9,0,3.4,1.5,3.4,3.4v1979.4c0,1.9-1.5,3.4-3.4,3.4H360.7c-1.9,0-3.4-1.5-3.4-3.4
			V1480.2C357.3,1478.3,358.9,1476.7,360.7,1476.7L360.7,1476.7z"/>
		<path fill="#996175" d="M861.9,1371h260.5c12.5,0,22.8,10.2,22.8,22.8l0,0c0,12.6-10.2,22.8-22.8,22.8H861.9
			c-12.5,0-22.8-10.2-22.8-22.8l0,0C839.1,1381.3,849.4,1371,861.9,1371L861.9,1371z"/>
		<path fill="#996175" d="M876,3517.4h232.2c20.3,0,36.9,16.6,36.9,36.9l0,0c0,20.3-16.6,36.9-36.9,36.9H876
			c-20.3,0-36.9-16.6-36.9-36.9l0,0C839.1,3534,855.7,3517.4,876,3517.4z"/>
		<g>
			<path fill="#FCDDE9" d="M599.8,1874.3c-16.5,0-29.9-13.4-29.9-29.9s13.4-29.9,29.9-29.9h190c16.5,0,29.9,13.4,29.9,29.9
				s-13.4,29.9-29.9,29.9H599.8L599.8,1874.3z M1468.3,1874.3c-16.5,0-29.9-13.4-29.9-29.9s13.4-29.9,29.9-29.9h40.9
				c16.5,0,29.9,13.4,29.9,29.9s-13.4,29.9-29.9,29.9H1468.3z M599.8,1746.7c-16.5,0-29.9-13.4-29.9-29.9s13.4-29.9,29.9-29.9H848
				c16.5,0,29.9,13.4,29.9,29.9s-13.4,29.9-29.9,29.9H599.8z M1059.1,1746.7c-16.5,0-29.9-13.4-29.9-29.9s13.4-29.9,29.9-29.9h386.5
				c16.5,0,29.9,13.4,29.9,29.9s-13.4,29.9-29.9,29.9H1059.1L1059.1,1746.7L1059.1,1746.7z M750.3,2129.6
				c-16.5,0-29.9-13.4-29.9-29.9s13.4-29.9,29.9-29.9h444.8c16.5,0,29.9,13.4,29.9,29.9s-13.4,29.9-29.9,29.9H750.3L750.3,2129.6z
				 M1291,2129.6c-16.5,0-29.9-13.4-29.9-29.9s13.4-29.9,29.9-29.9h187.4c16.5,0,29.9,13.4,29.9,29.9s-13.4,29.9-29.9,29.9H1291z
				 M750.3,2257.3c-16.5,0-29.9-13.4-29.9-29.9s13.4-29.9,29.9-29.9H972c16.5,0,29.9,13.4,29.9,29.9s-13.4,29.9-29.9,29.9H750.3z
				 M1135.7,2257.3c-16.5,0-29.9-13.4-29.9-29.9s13.4-29.9,29.9-29.9h360.1c16.5,0,29.9,13.4,29.9,29.9s-13.4,29.9-29.9,29.9H1135.7
				L1135.7,2257.3z M750.3,2385c-16.5,0-29.9-13.4-29.9-29.9s13.4-29.9,29.9-29.9H1236c16.5,0,29.9,13.4,29.9,29.9
				s-13.4,29.9-29.9,29.9H750.3L750.3,2385z M750.3,2512.6c-16.5,0-29.9-13.4-29.9-29.9s13.4-29.9,29.9-29.9h571.5
				c16.5,0,29.9,13.4,29.9,29.9s-13.4,29.9-29.9,29.9H750.3L750.3,2512.6z M599.8,2767.9c-16.5,0-29.9-13.4-29.9-29.9
				s13.4-29.9,29.9-29.9h87.1c16.5,0,29.9,13.4,29.9,29.9s-13.4,29.9-29.9,29.9H599.8z M789.9,2767.9c-16.5,0-29.9-13.4-29.9-29.9
				s13.4-29.9,29.9-29.9h260.9c16.5,0,29.9,13.4,29.9,29.9s-13.4,29.9-29.9,29.9H789.9L789.9,2767.9z M1214.4,2767.9
				c-16.5,0-29.9-13.4-29.9-29.9s13.4-29.9,29.9-29.9h266.5c16.5,0,29.9,13.4,29.9,29.9s-13.4,29.9-29.9,29.9H1214.4z M599.8,2895.6
				c-16.5,0-29.9-13.4-29.9-29.9s13.4-29.9,29.9-29.9h257.6c16.5,0,29.9,13.4,29.9,29.9s-13.4,29.9-29.9,29.9H599.8L599.8,2895.6z
				 M951.9,2895.6c-16.5,0-29.9-13.4-29.9-29.9s13.4-29.9,29.9-29.9H1236c16.5,0,29.9,13.4,29.9,29.9s-13.4,29.9-29.9,29.9H951.9
				L951.9,2895.6z M1347.1,2895.6c-16.5,0-29.9-13.4-29.9-29.9s13.4-29.9,29.9-29.9h96.8c16.5,0,29.9,13.4,29.9,29.9
				s-13.4,29.9-29.9,29.9H1347.1z M599.8,3023.2c-16.5,0-29.9-13.4-29.9-29.9s13.4-29.9,29.9-29.9h113.6c16.5,0,29.9,13.4,29.9,29.9
				s-13.4,29.9-29.9,29.9H599.8z M980,3023.2c-16.5,0-29.9-13.4-29.9-29.9s13.4-29.9,29.9-29.9h174.2c16.5,0,29.9,13.4,29.9,29.9
				s-13.4,29.9-29.9,29.9H980z M1401,3023.2c-16.5,0-29.9-13.4-29.9-29.9s13.4-29.9,29.9-29.9h99.2c16.5,0,29.9,13.4,29.9,29.9
				s-13.4,29.9-29.9,29.9H1401z M599.8,3151c-16.5,0-29.9-13.4-29.9-29.9s13.4-29.9,29.9-29.9h380.1c16.5,0,29.9,13.4,29.9,29.9
				s-13.4,29.9-29.9,29.9H599.8L599.8,3151z"/>
			<path fill="#FFFFFF" d="M982.6,2640.3c-16.5,0-29.9-13.4-29.9-29.9s13.4-29.9,29.9-29.9h449.6c16.5,0,29.9,13.4,29.9,29.9
				s-13.4,29.9-29.9,29.9H982.6L982.6,2640.3L982.6,2640.3z M449,3091.1c16.5,0,29.9,13.4,29.9,29.9s-13.4,29.9-29.9,29.9
				s-29.9-13.4-29.9-29.9S432.6,3091.1,449,3091.1z M449,1686.8c16.5,0,29.9,13.4,29.9,29.9s-13.4,29.9-29.9,29.9
				s-29.9-13.4-29.9-29.9S432.6,1686.8,449,1686.8z M449,1814.4c16.5,0,29.9,13.4,29.9,29.9s-13.4,29.9-29.9,29.9
				s-29.9-13.4-29.9-29.9S432.6,1814.4,449,1814.4z M449,1942.1c16.5,0,29.9,13.4,29.9,29.9s-13.4,29.9-29.9,29.9
				s-29.9-13.4-29.9-29.9S432.6,1942.1,449,1942.1z M449,2069.8c16.5,0,29.9,13.4,29.9,29.9s-13.4,29.9-29.9,29.9
				s-29.9-13.4-29.9-29.9C419.1,2083.1,432.6,2069.8,449,2069.8z M449,2197.5c16.5,0,29.9,13.4,29.9,29.9s-13.4,29.9-29.9,29.9
				s-29.9-13.4-29.9-29.9S432.6,2197.5,449,2197.5z M449,2325.1c16.5,0,29.9,13.4,29.9,29.9s-13.4,30-29.9,30s-29.9-13.4-29.9-29.9
				S432.6,2325.1,449,2325.1z M449,2452.8c16.5,0,29.9,13.4,29.9,29.9s-13.4,29.9-29.9,29.9s-29.9-13.4-29.9-29.9
				S432.6,2452.8,449,2452.8z M449,2580.4c16.5,0,29.9,13.4,29.9,29.9s-13.4,29.9-29.9,29.9s-29.9-13.4-29.9-29.9
				S432.6,2580.4,449,2580.4z M449,2708.1c16.5,0,29.9,13.4,29.9,29.9s-13.4,29.9-29.9,29.9s-29.9-13.4-29.9-29.9
				S432.6,2708.1,449,2708.1z M449,2835.7c16.5,0,29.9,13.4,29.9,29.9s-13.4,29.9-29.9,29.9s-29.9-13.4-29.9-29.9
				C419.1,2849.1,432.6,2835.7,449,2835.7z M449,2963.5c16.5,0,29.9,13.4,29.9,29.9s-13.4,29.9-29.9,29.9s-29.9-13.4-29.9-29.9
				C419.1,2976.8,432.6,2963.5,449,2963.5z M599.8,2001.9c-16.5,0-29.9-13.4-29.9-29.9s13.4-29.9,29.9-29.9h431.6
				c16.5,0,29.9,13.4,29.9,29.9s-13.4,29.9-29.9,29.9H599.8z M1180.5,2001.9c-16.5,0-29.9-13.4-29.9-29.9s13.4-29.9,29.9-29.9h304.9
				c16.5,0,29.9,13.4,29.9,29.9s-13.4,29.9-29.9,29.9H1180.5z M599.8,2640.3c-16.5,0-29.9-13.4-29.9-29.9s13.4-29.9,29.9-29.9h219.1
				c16.5,0,29.9,13.4,29.9,29.9s-13.4,29.9-29.9,29.9H599.8z"/>
			<path fill="#EBB5C9" d="M953.6,1874.3c-16.5,0-29.9-13.4-29.9-29.9s13.4-29.9,29.9-29.9h380.1c16.5,0,29.9,13.4,29.9,29.9
				s-13.4,29.9-29.9,29.9H953.6L953.6,1874.3L953.6,1874.3z M1377.7,2385c-16.5,0-29.9-13.4-29.9-29.9s13.4-29.9,29.9-29.9h92.4
				c16.5,0,29.9,13.4,29.9,29.9s-13.4,29.9-29.9,29.9H1377.7z M1203,3151c-16.5,0-29.9-13.4-29.9-29.9s13.4-29.9,29.9-29.9h239.8
				c16.5,0,29.9,13.4,29.9,29.9s-13.4,29.9-29.9,29.9H1203L1203,3151z"/>
		</g>
	</g>
	<path fill="#C28A9E" d="M3839.1,1676.2h873.5c39.6,0,72,32.4,72,72v1812.2c0,39.6-32.4,72-72,72h-873.5c-39.6,0-72-32.4-72-72
		V1748.2C3767.2,1708.6,3799.5,1676.2,3839.1,1676.2z"/>
	<path fill="#DBA4B8" d="M3839.7,1818.7H4712c1.9,0,3.4,1.5,3.4,3.4v1664.3c0,1.9-1.5,3.4-3.4,3.4h-872.4c-1.9,0-3.4-1.5-3.4-3.4
		V1822.1C3836.2,1820.2,3837.8,1818.7,3839.7,1818.7L3839.7,1818.7z"/>
	<path fill="#996175" d="M4166.3,1729.7h219.2c10.6,0,19.2,8.6,19.2,19.2l0,0c0,10.6-8.6,19.2-19.2,19.2h-219.2
		c-10.6,0-19.2-8.6-19.2-19.2l0,0C4147.1,1738.3,4155.7,1729.7,4166.3,1729.7z"/>
	<path fill="#996175" d="M4178.1,3535.7h195.4c17.1,0,31.1,14,31.1,31l0,0c0,17.1-14,31.1-31.1,31.1h-195.4
		c-17.1,0-31.1-14-31.1-31.1l0,0C4147.1,3549.6,4161.1,3535.7,4178.1,3535.7z"/>
	<g>
		<path fill="#FCDDE9" d="M4035.5,2153.2c-13.9,0-25.2-11.3-25.2-25.2s11.3-25.2,25.2-25.2h159.9c13.9,0,25.2,11.3,25.2,25.2
			s-11.3,25.2-25.2,25.2H4035.5z M4536.7,2153.2c-13.9,0-25.2-11.3-25.2-25.2s11.3-25.2,25.2-25.2h34.4c13.9,0,25.2,11.3,25.2,25.2
			s-11.3,25.2-25.2,25.2H4536.7z M4035.5,2045.7c-13.9,0-25.2-11.3-25.2-25.2c0-13.9,11.3-25.2,25.2-25.2h104.4
			c13.9,0,25.2,11.3,25.2,25.2c0,13.9-11.3,25.2-25.2,25.2H4035.5z M4317.6,2045.7c-13.9,0-25.2-11.3-25.2-25.2
			c0-13.9,11.3-25.2,25.2-25.2h325.2c13.9,0,25.2,11.3,25.2,25.2c0,13.9-11.3,25.2-25.2,25.2H4317.6L4317.6,2045.7z M4162.2,2368
			c-13.9,0-25.2-11.3-25.2-25.2s11.3-25.2,25.2-25.2h232.5c13.9,0,25.2,11.3,25.2,25.2s-11.3,25.2-25.2,25.2H4162.2L4162.2,2368z
			 M4475.3,2368c-13.9,0-25.2-11.3-25.2-25.2s11.3-25.2,25.2-25.2H4633c13.9,0,25.2,11.3,25.2,25.2s-11.3,25.2-25.2,25.2H4475.3z
			 M4162.2,2475.4c-13.9,0-25.2-11.3-25.2-25.2s11.3-25.2,25.2-25.2h186.5c13.9,0,25.2,11.3,25.2,25.2s-11.3,25.2-25.2,25.2H4162.2z
			 M4486.4,2475.4c-13.9,0-25.2-11.3-25.2-25.2s11.3-25.2,25.2-25.2h64.4c13.9,0,25.2,11.3,25.2,25.2s-11.3,25.2-25.2,25.2H4486.4z
			 M4162.2,2582.8c-13.9,0-25.2-11.3-25.2-25.2s11.3-25.2,25.2-25.2h253.4c13.9,0,25.2,11.3,25.2,25.2s-11.3,25.2-25.2,25.2H4162.2z
			 M4162.2,2690.2c-13.9,0-25.2-11.3-25.2-25.2s11.3-25.2,25.2-25.2h480.9c13.9,0,25.2,11.3,25.2,25.2s-11.3,25.2-25.2,25.2H4162.2z
			 M4035.5,2905c-13.9,0-25.2-11.3-25.2-25.2s11.3-25.2,25.2-25.2h73.3c13.9,0,25.2,11.3,25.2,25.2s-11.3,25.2-25.2,25.2H4035.5z
			 M4195.5,2905c-13.9,0-25.2-11.3-25.2-25.2s11.3-25.2,25.2-25.2h75.4c13.9,0,25.2,11.3,25.2,25.2s-11.3,25.2-25.2,25.2H4195.5z
			 M4408.6,2905c-13.9,0-25.2-11.3-25.2-25.2s11.3-25.2,25.2-25.2h224.3c13.9,0,25.2,11.3,25.2,25.2s-11.3,25.2-25.2,25.2H4408.6z
			 M4035.5,3012.4c-13.9,0-25.2-11.3-25.2-25.2s11.3-25.2,25.2-25.2h216.8c13.9,0,25.2,11.3,25.2,25.2s-11.3,25.2-25.2,25.2H4035.5z
			 M4331.8,3012.4c-13.9,0-25.2-11.3-25.2-25.2s11.3-25.2,25.2-25.2h119.5c13.9,0,25.2,11.3,25.2,25.2s-11.3,25.2-25.2,25.2H4331.8
			L4331.8,3012.4z M4544.7,3012.4c-13.9,0-25.2-11.3-25.2-25.2s11.3-25.2,25.2-25.2h81.4c13.9,0,25.2,11.3,25.2,25.2
			s-11.3,25.2-25.2,25.2H4544.7z M4035.5,3119.8c-13.9,0-25.2-11.3-25.2-25.2s11.3-25.2,25.2-25.2h95.5c13.9,0,25.2,11.3,25.2,25.2
			s-11.3,25.2-25.2,25.2H4035.5z M4253.5,3119.8c-13.9,0-25.2-11.3-25.2-25.2s11.3-25.2,25.2-25.2H4400c13.9,0,25.2,11.3,25.2,25.2
			s-11.3,25.2-25.2,25.2H4253.5z M4522.5,3119.8c-13.9,0-25.2-11.3-25.2-25.2s11.3-25.2,25.2-25.2h83.5c13.9,0,25.2,11.3,25.2,25.2
			s-11.3,25.2-25.2,25.2H4522.5z M4035.5,3227.3c-13.9,0-25.2-11.3-25.2-25.2s11.3-25.2,25.2-25.2h225.3c13.9,0,25.2,11.3,25.2,25.2
			s-11.3,25.2-25.2,25.2H4035.5z"/>
		<path fill="#FFFFFF" d="M4357.6,2797.6c-13.9,0-25.2-11.3-25.2-25.2s11.3-25.2,25.2-25.2h214c13.9,0,25.2,11.3,25.2,25.2
			s-11.3,25.2-25.2,25.2H4357.6L4357.6,2797.6z M3908.7,3177c13.9,0,25.2,11.3,25.2,25.2s-11.3,25.2-25.2,25.2s-25.2-11.3-25.2-25.2
			C3883.5,3188.2,3894.8,3177,3908.7,3177z M3908.7,1995.4c13.9,0,25.2,11.3,25.2,25.2c0,13.9-11.3,25.2-25.2,25.2
			s-25.2-11.3-25.2-25.2C3883.5,2006.6,3894.8,1995.4,3908.7,1995.4z M3908.7,2102.8c13.9,0,25.2,11.3,25.2,25.2
			s-11.3,25.2-25.2,25.2s-25.2-11.3-25.2-25.2S3894.8,2102.8,3908.7,2102.8z M3908.7,2210.2c13.9,0,25.2,11.3,25.2,25.2
			s-11.3,25.2-25.2,25.2s-25.2-11.3-25.2-25.2S3894.8,2210.2,3908.7,2210.2z M3908.7,2317.7c13.9,0,25.2,11.3,25.2,25.2
			s-11.3,25.2-25.2,25.2s-25.2-11.3-25.2-25.2C3883.5,2328.9,3894.8,2317.7,3908.7,2317.7z M3908.7,2425.1
			c13.9,0,25.2,11.3,25.2,25.2s-11.3,25.2-25.2,25.2s-25.2-11.3-25.2-25.2C3883.5,2436.3,3894.8,2425.1,3908.7,2425.1z
			 M3908.7,2532.5c13.9,0,25.2,11.3,25.2,25.2s-11.3,25.2-25.2,25.2s-25.2-11.3-25.2-25.2
			C3883.5,2543.7,3894.8,2532.5,3908.7,2532.5z M3908.7,2639.9c13.9,0,25.2,11.3,25.2,25.2s-11.3,25.2-25.2,25.2
			s-25.2-11.3-25.2-25.2C3883.5,2651.1,3894.8,2639.9,3908.7,2639.9z M3908.7,2747.3c13.9,0,25.2,11.3,25.2,25.2
			s-11.3,25.2-25.2,25.2s-25.2-11.3-25.2-25.2C3883.5,2758.5,3894.8,2747.3,3908.7,2747.3z M3908.7,2854.7
			c13.9,0,25.2,11.3,25.2,25.2s-11.3,25.2-25.2,25.2s-25.2-11.3-25.2-25.2C3883.5,2865.9,3894.8,2854.7,3908.7,2854.7z
			 M3908.7,2962.1c13.9,0,25.2,11.3,25.2,25.2s-11.3,25.2-25.2,25.2s-25.2-11.3-25.2-25.2
			C3883.5,2973.4,3894.8,2962.1,3908.7,2962.1L3908.7,2962.1z M3908.7,3069.5c13.9,0,25.2,11.3,25.2,25.2s-11.3,25.2-25.2,25.2
			s-25.2-11.3-25.2-25.2C3883.5,3080.7,3894.8,3069.5,3908.7,3069.5z M4035.5,2260.6c-13.9,0-25.2-11.3-25.2-25.2
			s11.3-25.2,25.2-25.2h284.4c13.9,0,25.2,11.3,25.2,25.2s-11.3,25.2-25.2,25.2H4035.5z M4445.4,2260.6c-13.9,0-25.2-11.3-25.2-25.2
			s11.3-25.2,25.2-25.2h83.6c13.9,0,25.2,11.3,25.2,25.2s-11.3,25.2-25.2,25.2H4445.4z M4035.5,2797.6c-13.9,0-25.2-11.3-25.2-25.2
			s11.3-25.2,25.2-25.2h184.4c13.9,0,25.2,11.3,25.2,25.2s-11.3,25.2-25.2,25.2H4035.5z"/>
		<path fill="#EBB5C9" d="M4333.2,2153.2c-13.9,0-25.2-11.3-25.2-25.2s11.3-25.2,25.2-25.2h112.7c13.9,0,25.2,11.3,25.2,25.2
			s-11.3,25.2-25.2,25.2H4333.2L4333.2,2153.2z M4530,2582.8c-13.9,0-25.2-11.3-25.2-25.2s11.3-25.2,25.2-25.2h77.7
			c13.9,0,25.2,11.3,25.2,25.2s-11.3,25.2-25.2,25.2H4530z M4374.2,3227.3c-13.9,0-25.2-11.3-25.2-25.2s11.3-25.2,25.2-25.2H4576
			c13.9,0,25.2,11.3,25.2,25.2s-11.3,25.2-25.2,25.2H4374.2z"/>
	</g>
	<path fill="#FFFFFF" d="M673.5,806.8c14.5,0,26.3,11.8,26.3,26.3s-11.8,26.3-26.3,26.3s-26.3-11.8-26.3-26.3
		C647.3,818.5,659,806.8,673.5,806.8z M4379.5,1193.6c41.7,0,75.5,33.8,75.5,75.5s-33.8,75.4-75.5,75.4s-75.4-33.8-75.4-75.4
		C4304.1,1227.3,4337.9,1193.6,4379.5,1193.6z M2849,244.4c24,0,43.4,19.4,43.4,43.5c0,24-19.4,43.4-43.4,43.4s-43.4-19.4-43.4-43.4
		S2825,244.4,2849,244.4z M4933.8,2760c61.9,0,112,50.2,112,112c0,61.9-50.2,112-112,112c-61.9,0-112-50.2-112-112
		C4821.7,2810.2,4871.9,2760,4933.8,2760z M3445.8,3394.7c29,0,52.5,23.5,52.5,52.5s-23.5,52.5-52.5,52.5s-52.5-23.5-52.5-52.5
		C3393.3,3418.3,3416.8,3394.7,3445.8,3394.7z M1256.2,2505.8c17.7,0,32,14.3,32,32s-14.3,32-32,32s-32-14.3-32-32
		S1238.5,2505.8,1256.2,2505.8z M1937,3328.5c63.1,0,114.3,51.2,114.3,114.3s-51.2,114.3-114.3,114.3s-114.3-51.2-114.3-114.3
		S1873.9,3328.5,1937,3328.5z M315.6,1952.2c53.2,0,96.3,43.1,96.3,96.3c0,53.2-43.1,96.3-96.3,96.3c-53.2,0-96.3-43.1-96.3-96.3
		S262.4,1952.2,315.6,1952.2z"/>
	<g>
		<path fill="#FFE5EE" d="M4289.8,325.8c15.3,0,27.9,12.6,27.9,27.9v382.4c0,15.3-12.6,27.9-27.9,27.9c-297,0-335.2,0-632.2,0
			c-15.4,0-27.9-12.6-27.9-27.9V353.7c0-15.4,12.6-27.9,27.9-27.9C3954.6,325.8,3992.9,325.8,4289.8,325.8L4289.8,325.8z"/>
		<path fill="#E0ACBF" d="M3657.7,325.8c-15.4,0-27.9,12.6-27.9,27.9V415c315.6,0,372.4,0,688,0v-61.3c0-15.4-12.6-27.9-27.9-27.9
			C3992.9,325.8,3954.6,325.8,3657.7,325.8L3657.7,325.8z"/>
		<path fill="#FFFFFF" d="M4152.1,352.4c11.8,0,23.6,0,35.4,0c23.8,0,23.8,35.9,0,35.9c-11.8,0-23.6,0-35.4,0
			C4128.4,388.3,4128.4,352.4,4152.1,352.4z M4233.3,352.4h35.4c23.8,0,23.8,35.9,0,35.9h-35.4
			C4209.5,388.3,4209.5,352.4,4233.3,352.4z M4072.7,352.4h35.5c23.8,0,23.8,35.9,0,35.9h-35.5
			C4048.9,388.3,4048.9,352.4,4072.7,352.4z"/>
		<path fill="#E0ACBF" d="M3896.7,654.3h154c19,0,34.4,15.4,34.4,34.4l0,0c0,19-15.4,34.4-34.4,34.4h-154c-19,0-34.4-15.4-34.4-34.4
			l0,0C3862.3,669.7,3877.7,654.3,3896.7,654.3z"/>
	</g>
	<g>
		<path fill="#FFFFFF" d="M2759.4,2350.2h1233.4c11.1,0,20.1,19.3,20.1,43.2V3272c0,23.8-9,43.2-20.1,43.2H2759.4
			c-11.1,0-20.1-19.3-20.1-43.2v-878.6C2739.3,2369.5,2748.3,2350.2,2759.4,2350.2z"/>
		<path fill="#FFE5EE" d="M3501.6,2776.8c29.4,0,58.8,0,88.1,0c13.6,0,24.7,11.1,24.7,24.7c0,14.9,0,29.8,0,44.7
			c0,13.6-11.1,24.7-24.7,24.7c-29.4,0-58.8,0-88.1,0c-13.6,0-24.7-11.1-24.7-24.7c0-14.9,0-29.8,0-44.7
			C3477,2787.9,3488.1,2776.8,3501.6,2776.8z M2993,2776.8c29.4,0,58.8,0,88.1,0c13.6,0,24.7,11.1,24.7,24.7c0,14.9,0,29.8,0,44.7
			c0,13.6-11.1,24.7-24.7,24.7c-29.4,0-58.8,0-88.1,0c-13.6,0-24.7-11.1-24.7-24.7c0-14.9,0-29.8,0-44.7
			C2968.3,2787.9,2979.4,2776.8,2993,2776.8z M3162.5,2645.6c29.4,0,58.8,0,88.1,0c13.6,0,24.7,11.1,24.7,24.7c0,14.9,0,29.8,0,44.7
			c0,13.6-11.1,24.7-24.7,24.7c-29.4,0-58.8,0-88.1,0c-13.6,0-24.7-11.1-24.7-24.7c0-14.9,0-29.8,0-44.7
			C3137.9,2656.6,3148.9,2645.6,3162.5,2645.6z M3332.1,2645.6c29.4,0,58.8,0,88.1,0c13.6,0,24.7,11.1,24.7,24.7
			c0,14.9,0,29.8,0,44.7c0,13.6-11.1,24.7-24.7,24.7c-29.4,0-58.8,0-88.1,0c-13.6,0-24.7-11.1-24.7-24.7c0-14.9,0-29.8,0-44.7
			C3307.4,2656.6,3318.5,2645.6,3332.1,2645.6z M3501.6,2645.6c29.4,0,58.8,0,88.1,0c13.6,0,24.7,11.1,24.7,24.7
			c0,14.9,0,29.8,0,44.7c0,13.6-11.1,24.7-24.7,24.7c-29.4,0-58.8,0-88.1,0c-13.6,0-24.7-11.1-24.7-24.7c0-14.9,0-29.8,0-44.7
			C3477,2656.6,3488.1,2645.6,3501.6,2645.6z M2993,2908.1c29.4,0,58.8,0,88.1,0c13.6,0,24.7,11.1,24.7,24.7c0,14.9,0,29.8,0,44.7
			c0,13.6-11.1,24.7-24.7,24.7c-29.4,0-58.8,0-88.1,0c-13.6,0-24.7-11.1-24.7-24.7c0-14.9,0-29.8,0-44.7
			C2968.3,2919.2,2979.4,2908.1,2993,2908.1L2993,2908.1z M2993,3039.3c29.4,0,58.8,0,88.1,0c13.6,0,24.7,11.1,24.7,24.7
			c0,14.9,0,29.8,0,44.7c0,13.6-11.1,24.7-24.7,24.7c-29.4,0-58.8,0-88.1,0c-13.6,0-24.7-11.1-24.7-24.7c0-14.9,0-29.8,0-44.7
			C2968.3,3050.4,2979.4,3039.3,2993,3039.3z M2993,3170.6c29.4,0,58.8,0,88.1,0c13.6,0,24.7,11.1,24.7,24.7c0,14.9,0,29.8,0,44.7
			c0,13.6-11.1,24.7-24.7,24.7c-29.4,0-58.8,0-88.1,0c-13.6,0-24.7-11.1-24.7-24.7c0-14.9,0-29.8,0-44.7
			C2968.3,3181.7,2979.4,3170.6,2993,3170.6z M2823.4,3170.6h88.2c13.6,0,24.7,11.1,24.7,24.7v44.7c0,13.6-11.1,24.7-24.7,24.7
			h-88.2c-13.6,0-24.7-11.1-24.7-24.7v-44.7C2798.7,3181.7,2809.8,3170.6,2823.4,3170.6z M3162.5,3170.6c29.4,0,58.8,0,88.1,0
			c13.6,0,24.7,11.1,24.7,24.7c0,14.9,0,29.8,0,44.7c0,13.6-11.1,24.7-24.7,24.7c-29.4,0-58.8,0-88.1,0c-13.6,0-24.7-11.1-24.7-24.7
			c0-14.9,0-29.8,0-44.7C3137.9,3181.7,3148.9,3170.6,3162.5,3170.6z M3332.1,3170.6c29.4,0,58.8,0,88.1,0
			c13.6,0,24.7,11.1,24.7,24.7c0,14.9,0,29.8,0,44.7c0,13.6-11.1,24.7-24.7,24.7c-29.4,0-58.8,0-88.1,0c-13.6,0-24.7-11.1-24.7-24.7
			c0-14.9,0-29.8,0-44.7C3307.4,3181.7,3318.5,3170.6,3332.1,3170.6z M2823.4,3039.3c29.4,0,58.8,0,88.2,0
			c13.6,0,24.7,11.1,24.7,24.7c0,14.9,0,29.8,0,44.7c0,13.6-11.1,24.7-24.7,24.7c-29.4,0-58.8,0-88.2,0c-13.6,0-24.7-11.1-24.7-24.7
			c0-14.9,0-29.8,0-44.7C2798.7,3050.4,2809.8,3039.3,2823.4,3039.3z M3162.5,3039.3c29.4,0,58.8,0,88.1,0
			c13.6,0,24.7,11.1,24.7,24.7c0,14.9,0,29.8,0,44.7c0,13.6-11.1,24.7-24.7,24.7c-29.4,0-58.8,0-88.1,0c-13.6,0-24.7-11.1-24.7-24.7
			c0-14.9,0-29.8,0-44.7C3137.9,3050.4,3148.9,3039.3,3162.5,3039.3z M3332.1,3039.3c29.4,0,58.8,0,88.1,0
			c13.6,0,24.7,11.1,24.7,24.7c0,14.9,0,29.8,0,44.7c0,13.6-11.1,24.7-24.7,24.7c-29.4,0-58.8,0-88.1,0c-13.6,0-24.7-11.1-24.7-24.7
			c0-14.9,0-29.8,0-44.7C3307.4,3050.4,3318.5,3039.3,3332.1,3039.3z M3501.6,3039.3c29.4,0,58.8,0,88.1,0
			c13.6,0,24.7,11.1,24.7,24.7c0,14.9,0,29.8,0,44.7c0,13.6-11.1,24.7-24.7,24.7c-29.4,0-58.8,0-88.1,0c-13.6,0-24.7-11.1-24.7-24.7
			c0-14.9,0-29.8,0-44.7C3477,3050.4,3488.1,3039.3,3501.6,3039.3z M2823.4,2908.1c29.4,0,58.8,0,88.2,0c13.6,0,24.7,11.1,24.7,24.7
			c0,14.9,0,29.8,0,44.7c0,13.6-11.1,24.7-24.7,24.7c-29.4,0-58.8,0-88.2,0c-13.6,0-24.7-11.1-24.7-24.7c0-14.9,0-29.8,0-44.7
			C2798.7,2919.2,2809.8,2908.1,2823.4,2908.1z M3162.5,2908.1c29.4,0,58.8,0,88.1,0c13.6,0,24.7,11.1,24.7,24.7
			c0,14.9,0,29.8,0,44.7c0,13.6-11.1,24.7-24.7,24.7c-29.4,0-58.8,0-88.1,0c-13.6,0-24.7-11.1-24.7-24.7c0-14.9,0-29.8,0-44.7
			C3137.9,2919.2,3148.9,2908.1,3162.5,2908.1z M3332.1,2908.1c29.4,0,58.8,0,88.1,0c13.6,0,24.7,11.1,24.7,24.7
			c0,14.9,0,29.8,0,44.7c0,13.6-11.1,24.7-24.7,24.7c-29.4,0-58.8,0-88.1,0c-13.6,0-24.7-11.1-24.7-24.7c0-14.9,0-29.8,0-44.7
			C3307.4,2919.2,3318.5,2908.1,3332.1,2908.1z M3501.6,2908.1c29.4,0,58.8,0,88.1,0c13.6,0,24.7,11.1,24.7,24.7
			c0,14.9,0,29.8,0,44.7c0,13.6-11.1,24.7-24.7,24.7c-29.4,0-58.8,0-88.1,0c-13.6,0-24.7-11.1-24.7-24.7c0-14.9,0-29.8,0-44.7
			C3477,2919.2,3488.1,2908.1,3501.6,2908.1z M2823.4,2776.8c29.4,0,58.8,0,88.2,0c13.6,0,24.7,11.1,24.7,24.7c0,14.9,0,29.8,0,44.7
			c0,13.6-11.1,24.7-24.7,24.7c-29.4,0-58.8,0-88.2,0c-13.6,0-24.7-11.1-24.7-24.7c0-14.9,0-29.8,0-44.7
			C2798.7,2787.9,2809.8,2776.8,2823.4,2776.8z M3162.5,2776.8c29.4,0,58.8,0,88.1,0c13.6,0,24.7,11.1,24.7,24.7
			c0,14.9,0,29.8,0,44.7c0,13.6-11.1,24.7-24.7,24.7c-29.4,0-58.8,0-88.1,0c-13.6,0-24.7-11.1-24.7-24.7c0-14.9,0-29.8,0-44.7
			C3137.9,2787.9,3148.9,2776.8,3162.5,2776.8z M3332.1,2776.8c29.4,0,58.8,0,88.1,0c13.6,0,24.7,11.1,24.7,24.7
			c0,14.9,0,29.8,0,44.7c0,13.6-11.1,24.7-24.7,24.7c-29.4,0-58.8,0-88.1,0c-13.6,0-24.7-11.1-24.7-24.7c0-14.9,0-29.8,0-44.7
			C3307.4,2787.9,3318.5,2776.8,3332.1,2776.8z"/>
		<path fill="#E0ACBF" d="M3840.8,2908.1c29.4,0,58.8,0,88.2,0c13.6,0,24.7,11.1,24.7,24.7c0,14.9,0,29.8,0,44.7
			c0,13.6-11.1,24.7-24.7,24.7c-29.4,0-58.8,0-88.2,0c-13.6,0-24.7-11.1-24.7-24.7c0-14.9,0-29.8,0-44.7
			C3816.1,2919.2,3827.2,2908.1,3840.8,2908.1L3840.8,2908.1z M3840.8,3039.3c29.4,0,58.8,0,88.2,0c13.6,0,24.7,11.1,24.7,24.7
			c0,14.9,0,29.8,0,44.7c0,13.6-11.1,24.7-24.7,24.7c-29.4,0-58.8,0-88.2,0c-13.6,0-24.7-11.1-24.7-24.7c0-14.9,0-29.8,0-44.7
			C3816.1,3050.4,3827.2,3039.3,3840.8,3039.3z M3671.2,3039.3c29.4,0,58.8,0,88.1,0c13.6,0,24.7,11.1,24.7,24.7
			c0,14.9,0,29.8,0,44.7c0,13.6-11.1,24.7-24.7,24.7c-29.4,0-58.8,0-88.1,0c-13.6,0-24.7-11.1-24.7-24.7c0-14.9,0-29.8,0-44.7
			C3646.5,3050.4,3657.6,3039.3,3671.2,3039.3z M3671.2,2908.1c29.4,0,58.8,0,88.1,0c13.6,0,24.7,11.1,24.7,24.7
			c0,14.9,0,29.8,0,44.7c0,13.6-11.1,24.7-24.7,24.7c-29.4,0-58.8,0-88.1,0c-13.6,0-24.7-11.1-24.7-24.7c0-14.9,0-29.8,0-44.7
			C3646.5,2919.2,3657.6,2908.1,3671.2,2908.1z M3671.2,2776.8c29.4,0,58.8,0,88.1,0c13.6,0,24.7,11.1,24.7,24.7
			c0,14.9,0,29.8,0,44.7c0,13.6-11.1,24.7-24.7,24.7c-29.4,0-58.8,0-88.1,0c-13.6,0-24.7-11.1-24.7-24.7c0-14.9,0-29.8,0-44.7
			C3646.5,2787.9,3657.6,2776.8,3671.2,2776.8z M3671.2,2645.6c29.4,0,58.8,0,88.1,0c13.6,0,24.7,11.1,24.7,24.7
			c0,14.9,0,29.8,0,44.7c0,13.6-11.1,24.7-24.7,24.7c-29.4,0-58.8,0-88.1,0c-13.6,0-24.7-11.1-24.7-24.7c0-14.9,0-29.8,0-44.7
			C3646.5,2656.6,3657.6,2645.6,3671.2,2645.6z M3840.8,2645.6h88.2c13.6,0,24.7,11.1,24.7,24.7v44.7c0,13.6-11.1,24.7-24.7,24.7
			h-88.2c-13.6,0-24.7-11.1-24.7-24.7v-44.7C3816.1,2656.6,3827.2,2645.6,3840.8,2645.6z M3840.8,2776.8c29.4,0,58.8,0,88.2,0
			c13.6,0,24.7,11.1,24.7,24.7c0,14.9,0,29.8,0,44.7c0,13.6-11.1,24.7-24.7,24.7c-29.4,0-58.8,0-88.2,0c-13.6,0-24.7-11.1-24.7-24.7
			c0-14.9,0-29.8,0-44.7C3816.1,2787.9,3827.2,2776.8,3840.8,2776.8z"/>
		<g>
			<path fill="#E0ACBF" d="M2835.2,2404.4h1082c20,0,36.4,16.4,36.4,36.4v84.2c0,20-16.4,36.4-36.4,36.4h-1082
				c-20,0-36.4-16.4-36.4-36.4v-84.2C2798.7,2420.8,2815.1,2404.4,2835.2,2404.4z"/>
			<path fill="#B0798D" d="M3155,2428.2h442.3c14.4,0,26.3,11.8,26.3,26.3v20c0,14.4-11.8,26.3-26.3,26.3H3155
				c-14.4,0-26.3-11.8-26.3-26.3v-20C3128.7,2440.1,3140.5,2428.2,3155,2428.2z"/>
			<path fill="#FFE5EE" d="M2871,2585.2h1010.2c4.3,0,7.9,3.5,7.9,7.9l0,0c0,4.3-3.5,7.9-7.9,7.9H2871c-4.3,0-7.9-3.5-7.9-7.9l0,0
				C2863.2,2588.7,2866.7,2585.2,2871,2585.2z"/>
		</g>
		<circle fill="#FF6A59" cx="3204.1" cy="2823.1" r="80.8"/>
		<path fill="#FFFFFF" d="M3152.3,2833.6c-7.7-6.1-9.1-17.3-3.1-25c6.1-7.7,17.2-9.1,25-3.1l23.8,18.6l34.5-34.5c7-7,18.3-7,25.3,0
			s7,18.3,0,25.3l-45.6,45.6v-0.1c-6.3,6.3-16.4,7-23.6,1.4L3152.3,2833.6L3152.3,2833.6z"/>
	</g>
</g>
<g>
	<g id="_2031759885648_2_">
		<path fill="#F04141" d="M2978.7,1458.6c28,9.6,37.3,55.9,21.1,103.4c-16.2,47.7-52,78.6-80,69c-28-9.6-37.3-55.9-21.1-103.6
			C2915,1480,2950.8,1449.1,2978.7,1458.6z M2328.8,1458.6c-28,9.6-37.3,55.9-21.1,103.4c16.2,47.7,52,78.6,80,69
			c28-9.6,37.3-55.9,21.1-103.6C2392.3,1480,2356.5,1449.1,2328.8,1458.6z"/>
		<path fill="#E61E2B" d="M2033.1,2120.4c-52.8,154.5-115,282-189.3,422.8c-65.7,124.8-100.9,262.4-34.6,386.8
			c66.3,124.4,199.8,197.7,340.2,186.9l121-1253.2C2147.9,1895.1,2074,2000.5,2033.1,2120.4L2033.1,2120.4z M3274.4,2120.4
			c52.8,154.5,115,282,189.3,422.8c65.7,124.8,100.9,262.4,34.6,386.8c-66.3,124.4-199.8,197.7-340.2,186.9l-121-1253.2
			C3159.6,1895.1,3233.3,2000.5,3274.4,2120.4L3274.4,2120.4z"/>
		<path fill="#4A2727" d="M2324.3,3044.7L1810,2900c-67.7-19-140.4-4.7-195.7,38.7s-86.6,110.5-84.5,180.7
			c8,247.4,183.4,457.6,425.3,509.8h698.7h698.7c241.9-52.2,417.3-262.2,425.3-509.8c2.3-70.2-29.1-137.5-84.5-180.7
			c-55.3-43.4-128.1-57.7-195.7-38.7l-511.7,143.9l-84.9-84.9h-491.2L2324.3,3044.7z"/>
		<path fill="#301616" d="M2749.2,3479.6c174.8-178.9,385.6-277.7,597.4-406.9c-122.8,57.7-306.8,177-394.2-3.3l-298.6,106.4
			l-298.6-106.4c-87.6,180.5-271.4,61-394.2,3.3c211.8,129.3,422.6,228,597.4,406.9l95.4,1.6L2749.2,3479.6L2749.2,3479.6z"/>
		<path fill="#E61E2B" d="M2653.7,1783.6c197.1,19,220.6,40.1,383.1,80l29.7,127.1l188.5,647.1c32.3,110.7,23.7,229.2-24.2,334
			l-144.1,41.3c-54.2,15.3-101.1,49.3-132.2,96c-118.9,178.3-490.8,166.8-602.1,0c-31.3-46.7-78-81-132.2-96l-144.1-41.3
			c-47.9-104.8-56.5-223.3-24.2-334l188.5-647.1l29.7-127.1C2433.2,1823.7,2456.6,1802.6,2653.7,1783.6L2653.7,1783.6z"/>
		<path fill="#D40B18" d="M2653.7,1783.6c194.8,18.6,220,39.7,377.6,78.6c-72.2,98.6-190.3,147.8-238.6,147.8
			c-57.5,0-213.5-69.6-273.8-209.2C2554.4,1794.8,2596.8,1789.1,2653.7,1783.6L2653.7,1783.6z"/>
		<path fill="#FF6666" d="M2653.7,1783.6c119.5,11.5,175.2,23.9,236.8,40.7c1.6,11,2.5,21.9,2.5,33.2
			c0,128.3-107.2,232.3-239.2,232.3s-239.2-104-239.2-232.3c0-11.3,0.8-22.3,2.5-33.2C2478.5,1807.5,2534.3,1795.2,2653.7,1783.6z"
			/>
		<path fill="#F04141" d="M2653.7,1783.6c119.5,11.5,175.2,23.9,236.8,40.7c1.6,11,2.5,21.9,2.5,33.2c0,53.8-18.8,103.2-50.5,142.7
			c-19.9,6.6-37.2,10-49.9,10c-57.5,0-213.5-69.6-273.8-209.2C2554.4,1794.8,2596.8,1789.1,2653.7,1783.6L2653.7,1783.6z"/>
		<path fill="#BA0F1A" d="M2329.1,2328.8c-29.3,139.2-93.5,251.5-255,257.1c163.5,14.1,281.8,39.1,404,162.9l-36.8-60.6
			C2375.3,2579.3,2318.2,2455.3,2329.1,2328.8z M2978.4,2328.8c29.3,139.2,93.3,251.5,255,257.1c-163.5,14.1-281.8,39.1-404,162.9
			l36.8-60.6C2932.2,2579.3,2989.3,2455.3,2978.4,2328.8z"/>
		<path fill="#FFFFFF" d="M2111.9,2666.5c361.2,0,722.3,0,1083.5,0c23.7,0,40.7,18.6,37.5,41.3l-79.6,579.4
			c-3.1,22.7-25,41.3-48.9,41.3c-300.6,0-601.1,0-901.9,0c-23.9,0-45.8-18.6-48.9-41.3l-79.6-579.4
			C2071.2,2685.1,2088.2,2666.5,2111.9,2666.5L2111.9,2666.5z"/>
		<g>
			<path fill="#FFFFFF" d="M2749.2,3479.6l-233.7-63.9c-37-10.2-75.5-13.1-113.4-8.6c-32.7,3.7-64.5,12.7-94.3,26.4
				c-14.3,6.5-24.8,18.8-29.3,33.8c-4.5,14.9-2.3,31.1,5.9,44.4c25.2,41.1,59.1,76.1,99.3,102.7c26.8,17.8,58.9,25.8,90.7,22.9
				l285.5-8C2726.7,3581.5,2713.4,3532,2749.2,3479.6z"/>
			<path fill="#4A2727" d="M2497.9,3473.5c4.1-5.3,2.9-12.9-2.3-17c-5.3-4.1-12.9-2.9-17,2.3c-10.4,13.7-18.2,29.3-23.1,46.1
				c-4.9,16.6-7,34.4-6.1,52.6c0.4,6.6,6.1,11.7,12.7,11.5c6.6-0.4,11.7-6.1,11.5-12.7c-0.8-15.3,1-30.3,5.3-44.4
				C2482.8,3498,2489.3,3484.9,2497.9,3473.5L2497.9,3473.5z M2549.7,3490.4c3.9-5.5,2.5-13.1-2.9-16.8c-5.5-3.9-13.1-2.5-16.8,2.9
				c-9.4,13.5-16.2,28.2-19.9,43.6c-3.9,15.4-4.9,31.3-2.7,47.1c1,6.6,7,11.3,13.7,10.4c6.6-1,11.3-7,10.4-13.7
				c-1.8-12.7-1-25.4,2.2-37.9C2536.4,3513.4,2542.1,3501.3,2549.7,3490.4L2549.7,3490.4z M2603.1,3505c3.9-5.5,2.5-13.1-2.9-17
				s-13.1-2.5-17,2.9c-8.2,11.5-14.3,24.4-17.8,37.9c-3.5,13.5-4.7,27.8-3.3,42c0.6,6.6,6.6,11.5,13.3,11c6.6-0.6,11.5-6.6,11-13.3
				c-1.2-11.1-0.2-22.5,2.5-33.2C2591.8,3524.6,2596.5,3514.2,2603.1,3505L2603.1,3505z M2659.2,3513.4c3.3-5.7,1.6-13.1-4.3-16.6
				c-5.7-3.5-13.1-1.6-16.6,4.3c-7.6,12.7-12.7,26.6-15.3,41.1c-2.5,14.3-2.5,29.1,0.2,43.8c1.2,6.6,7.6,11,14.1,9.8
				c6.6-1.2,11-7.6,9.8-14.1c-2.2-11.7-2.2-23.7,0-35.2C2648.9,3534.7,2653,3523.6,2659.2,3513.4L2659.2,3513.4z"/>
		</g>
		<ellipse fill="#F7D7D9" cx="2653.7" cy="2997.4" rx="176.6" ry="109.7"/>
		<path fill="#FF6666" d="M2653.7,1146.7c275.7,0,298,245,298,463.1c0,218.2-226.1,327-298,327c-72,0-297.8-108.7-297.8-327
			C2355.7,1391.6,2378,1146.7,2653.7,1146.7L2653.7,1146.7z"/>
		<path fill="#FFFFFF" d="M2721.4,1840.2c-17.6,31.5-53.8,47.3-67.9,47.3c-13.9,0-50.3-15.8-67.7-47.3H2721.4L2721.4,1840.2z"/>
		<path fill="#4A2727" d="M2950.6,1541.4c27.4-118.3,112-269.5-25.8-342.4l-18.8-52.4c-53.4-148.2-216.9-225.3-365.3-172.1
			c-131.4,47.1-237.6,146.3-293.9,274c-7.4,16.8-7.8,36-1.2,53.2c6.6,17.2,19.9,30.9,36.8,38.3c20.7,70.8,41.5,134.3,74.1,201.4
			l24.1-147.8c56.3,94.3,410.4,125.5,512.1-76.5C2913.2,1416.8,2921.4,1444.6,2950.6,1541.4L2950.6,1541.4z"/>
		<path fill="#4A2727" d="M2587.8,1594.4V1549l-25-3.5c-33.8-4.7-67.3,0.2-96.2,13.7l8.4,26.6c28.2-1.2,56.7,0.4,85.5,4.5
			L2587.8,1594.4L2587.8,1594.4z M2815.3,1625.1c0,38.7-18.2,70-40.7,70c-22.5,0-40.7-31.3-40.7-70H2815.3z M2719.5,1594.4V1549
			l25-3.5c33.8-4.7,67.1,0.2,96.2,13.7l-8.4,26.6c-28.2-1.2-56.7,0.4-85.5,4.5L2719.5,1594.4L2719.5,1594.4z M2492.2,1625.1
			c0,38.7,18.2,70,40.7,70c22.5,0,40.7-31.3,40.7-70H2492.2L2492.2,1625.1z"/>
		<path fill="#F04141" d="M2653.7,1796.2c25.4,0,46.1-15.1,46.1-8c0,7-20.7,33.6-46.1,33.6c-25.4,0-46.1-26.6-46.1-33.6
			S2628.3,1796.2,2653.7,1796.2z"/>
		<path fill="#FFFFFF" d="M2783.6,1545.3c32.3,0,61.4,11.7,82.5,30.9c8.2,7.4,15.3,16,20.9,25.4l2.2-2.2
			c12.7-12.5,24.6-25.4,35.8-38.9c11-13.3,21.3-27.2,30.9-41.8c9.2,15.1,0.6,27.2-9.4,39.3c-2.7,3.3-5.7,6.8-8.6,10.2
			c-11.5,13.9-23.7,27.2-36.8,39.9l-7.4,7.2c4.5,11.3,7,23.5,7,36.2c0,29.5-13.3,56.3-34.6,75.5c-21.1,19.2-50.5,30.9-82.5,30.9
			c-32.3,0-61.4-11.7-82.5-30.9c-21.5-19.4-34.6-46-34.6-75.5c0-6.3,0.6-12.5,1.8-18.6h-28.9c1.2,6.1,1.8,12.3,1.8,18.6
			c0,29.5-13.3,56.3-34.6,75.5c-21.1,19.2-50.5,30.9-82.5,30.9c-32.1,0-61.4-11.7-82.5-30.9c-21.5-19.4-34.6-46-34.6-75.5
			c0-12.7,2.5-24.8,6.8-36.2l-7.2-7.2c-12.9-12.7-25.2-26-36.8-39.9c-2.9-3.3-5.7-6.8-8.6-10.2c-10-12.3-18.6-24.2-9.4-39.3
			c9.6,14.5,19.9,28.4,30.9,41.8c11.1,13.5,23.1,26.4,35.8,38.9l2.2,2.2c5.5-9.4,12.5-18,20.9-25.4c21.1-19.2,50.5-30.9,82.5-30.9
			c32.3,0,61.4,11.7,82.5,30.9c12.5,11.3,22.3,25.2,28.4,40.9h38.1c5.9-15.6,15.6-29.5,28.4-40.9
			C2722.2,1557,2751.5,1545.3,2783.6,1545.3L2783.6,1545.3z M2855.5,1587.9c-18.4-16.6-43.8-26.8-72-26.8c-28.2,0-53.6,10.2-72,26.8
			c-18.2,16.4-29.3,38.9-29.3,63.7c0,24.8,11.1,47.3,29.3,63.7c18.4,16.6,43.8,26.8,72,26.8c28.2,0,53.6-10.2,72-26.8
			c18.2-16.4,29.3-38.9,29.3-63.7S2873.7,1604.3,2855.5,1587.9z M2595.7,1587.9c-18.4-16.6-43.8-26.8-72-26.8
			c-28.2,0-53.6,10.2-72,26.8c-18.2,16.4-29.3,38.9-29.3,63.7c0,24.8,11.1,47.3,29.3,63.7c18.4,16.6,43.8,26.8,72,26.8
			c28.2,0,53.6-10.2,72-26.8c18.2-16.4,29.3-38.9,29.3-63.7S2613.9,1604.3,2595.7,1587.9z"/>
	</g>
	<ellipse fill="#593232" cx="2570.1" cy="1262.9" rx="220.2" ry="117.3"/>
</g>
</svg>
